HIERARCHY
ROOT Hips
{
  OFFSET -377.88 91.2513 1662.48
  CHANNELS 6 Xposition Yposition Zposition Zrotation Xrotation Yrotation
  JOINT Spine
  {
    OFFSET -2.88016e-05 8 0.000146082
    CHANNELS 6 Xposition Yposition Zposition Zrotation Xrotation Yrotation
    JOINT Spine1
    {
      OFFSET 2.74527e-05 8 -5.28852e-05
      CHANNELS 6 Xposition Yposition Zposition Zrotation Xrotation Yrotation
      JOINT Spine2
      {
        OFFSET -0.000369088 8 -0.00044713
        CHANNELS 6 Xposition Yposition Zposition Zrotation Xrotation Yrotation
        JOINT Spine3
        {
          OFFSET 0 8 0
          CHANNELS 6 Xposition Yposition Zposition Zrotation Xrotation Yrotation
          JOINT Neck
          {
            OFFSET -5.39732e-05 17 0.000496323
            CHANNELS 6 Xposition Yposition Zposition Zrotation Xrotation Yrotation
            JOINT Head
            {
              OFFSET -0.000170467 10.8 -0.000396187
              CHANNELS 6 Xposition Yposition Zposition Zrotation Xrotation Yrotation
              End Site
              {
                OFFSET 0 20.25 0
              }
            }
          }
          JOINT LeftShoulder
          {
            OFFSET 4.99989 17 0.000406402
            CHANNELS 6 Xposition Yposition Zposition Zrotation Xrotation Yrotation
            JOINT LeftShoulder2
            {
              OFFSET 6.45 0 0
              CHANNELS 6 Xposition Yposition Zposition Zrotation Xrotation Yrotation
              JOINT LeftArm
              {
                OFFSET 6.45003 -0.00010403 -6.79213e-05
                CHANNELS 6 Xposition Yposition Zposition Zrotation Xrotation Yrotation
                JOINT LeftForeArm
                {
                  OFFSET -0.00694736 -32.3856 -1.99
                  CHANNELS 6 Xposition Yposition Zposition Zrotation Xrotation Yrotation
                  JOINT LeftHand
                  {
                    OFFSET -2.61824e-05 -25.65 1.99991
                    CHANNELS 6 Xposition Yposition Zposition Zrotation Xrotation Yrotation
                    JOINT LeftHandThumb1
                    {
                      OFFSET -0.498874 -1.49923 2.64837
                      CHANNELS 6 Xposition Yposition Zposition Zrotation Xrotation Yrotation
                      JOINT LeftHandThumb2
                      {
                        OFFSET 0.00273175 -3.79476 3.69998
                        CHANNELS 6 Xposition Yposition Zposition Zrotation Xrotation Yrotation
                        JOINT LeftHandThumb3
                        {
                          OFFSET 0.000131983 -2.99782 2.6988
                          CHANNELS 6 Xposition Yposition Zposition Zrotation Xrotation Yrotation
                          End Site
                          {
                            OFFSET 0.00173202 -2.29826 1.79439
                          }
                        }
                      }
                    }
                    JOINT LeftHandIndex
                    {
                      OFFSET -0.00411416 -1.9039 1.60618
                      CHANNELS 6 Xposition Yposition Zposition Zrotation Xrotation Yrotation
                      JOINT LeftHandIndex1
                      {
                        OFFSET -0.0129602 -8.3124 1.92062
                        CHANNELS 6 Xposition Yposition Zposition Zrotation Xrotation Yrotation
                        JOINT LeftHandIndex2
                        {
                          OFFSET 0.0031851 -4.49658 -0.00696905
                          CHANNELS 6 Xposition Yposition Zposition Zrotation Xrotation Yrotation
                          JOINT LeftHandIndex3
                          {
                            OFFSET 0.000898319 -3.39987 -5.81739e-05
                            CHANNELS 6 Xposition Yposition Zposition Zrotation Xrotation Yrotation
                            End Site
                            {
                              OFFSET -0.000805472 -2.6024 6.06951e-05
                            }
                          }
                        }
                      }
                    }
                    JOINT LeftHandMiddle
                    {
                      OFFSET -0.243404 -2.19392 0.389929
                      CHANNELS 6 Xposition Yposition Zposition Zrotation Xrotation Yrotation
                      JOINT LeftHandMiddle1
                      {
                        OFFSET 0.000251096 -8.29975 0.999604
                        CHANNELS 6 Xposition Yposition Zposition Zrotation Xrotation Yrotation
                        JOINT LeftHandMiddle2
                        {
                          OFFSET 0.00442685 -4.64673 -0.0145123
                          CHANNELS 6 Xposition Yposition Zposition Zrotation Xrotation Yrotation
                          JOINT LeftHandMiddle3
                          {
                            OFFSET 0.00243764 -3.30194 0.0102761
                            CHANNELS 6 Xposition Yposition Zposition Zrotation Xrotation Yrotation
                            End Site
                            {
                              OFFSET 0.000860507 -2.69927 0.00333042
                            }
                          }
                        }
                      }
                    }
                    JOINT LeftHandRing
                    {
                      OFFSET -0.501202 -2.15113 -0.798035
                      CHANNELS 6 Xposition Yposition Zposition Zrotation Xrotation Yrotation
                      JOINT LeftHandRing1
                      {
                        OFFSET 0.0109083 -7.73968 -0.216781
                        CHANNELS 6 Xposition Yposition Zposition Zrotation Xrotation Yrotation
                        JOINT LeftHandRing2
                        {
                          OFFSET -0.00181363 -3.80095 0.00177507
                          CHANNELS 6 Xposition Yposition Zposition Zrotation Xrotation Yrotation
                          JOINT LeftHandRing3
                          {
                            OFFSET -0.00349557 -3.39548 -0.00838262
                            CHANNELS 6 Xposition Yposition Zposition Zrotation Xrotation Yrotation
                            End Site
                            {
                              OFFSET 0.00327864 -2.5995 0.00510034
                            }
                          }
                        }
                      }
                    }
                    JOINT LeftHandPinky
                    {
                      OFFSET -0.742348 -1.74281 -1.86163
                      CHANNELS 6 Xposition Yposition Zposition Zrotation Xrotation Yrotation
                      JOINT LeftHandPinky1
                      {
                        OFFSET 0.00636814 -7.14454 -1.0098
                        CHANNELS 6 Xposition Yposition Zposition Zrotation Xrotation Yrotation
                        JOINT LeftHandPinky2
                        {
                          OFFSET 0.00530702 -2.99598 -0.0107652
                          CHANNELS 6 Xposition Yposition Zposition Zrotation Xrotation Yrotation
                          JOINT LeftHandPinky3
                          {
                            OFFSET 0.00123651 -2.35451 0.00728437
                            CHANNELS 6 Xposition Yposition Zposition Zrotation Xrotation Yrotation
                            End Site
                            {
                              OFFSET -0.000270836 -2.10073 0.000166484
                            }
                          }
                        }
                      }
                    }
                  }
                }
              }
            }
          }
          JOINT RightShoulder
          {
            OFFSET -5.00011 17 0.000638441
            CHANNELS 6 Xposition Yposition Zposition Zrotation Xrotation Yrotation
            JOINT RightShoulder2
            {
              OFFSET -6.45 0 0
              CHANNELS 6 Xposition Yposition Zposition Zrotation Xrotation Yrotation
              JOINT RightArm
              {
                OFFSET -6.44989 0.000100361 -0.000506265
                CHANNELS 6 Xposition Yposition Zposition Zrotation Xrotation Yrotation
                JOINT RightForeArm
                {
                  OFFSET -0.000179215 -32.4003 -1.99984
                  CHANNELS 6 Xposition Yposition Zposition Zrotation Xrotation Yrotation
                  JOINT RightHand
                  {
                    OFFSET 0.00199942 -25.6468 1.99768
                    CHANNELS 6 Xposition Yposition Zposition Zrotation Xrotation Yrotation
                    JOINT RightHandThumb1
                    {
                      OFFSET 0.500453 -1.50086 2.64925
                      CHANNELS 6 Xposition Yposition Zposition Zrotation Xrotation Yrotation
                      JOINT RightHandThumb2
                      {
                        OFFSET -0.0130646 -3.81613 3.71081
                        CHANNELS 6 Xposition Yposition Zposition Zrotation Xrotation Yrotation
                        JOINT RightHandThumb3
                        {
                          OFFSET 0.00282325 -3.00227 2.69345
                          CHANNELS 6 Xposition Yposition Zposition Zrotation Xrotation Yrotation
                          End Site
                          {
                            OFFSET -0.00320532 -2.29972 1.80434
                          }
                        }
                      }
                    }
                    JOINT RightHandIndex
                    {
                      OFFSET -0.00125837 -1.90286 1.60066
                      CHANNELS 6 Xposition Yposition Zposition Zrotation Xrotation Yrotation
                      JOINT RightHandIndex1
                      {
                        OFFSET 0.00149405 -8.30099 1.89798
                        CHANNELS 6 Xposition Yposition Zposition Zrotation Xrotation Yrotation
                        JOINT RightHandIndex2
                        {
                          OFFSET -0.000314776 -4.49901 -0.000496629
                          CHANNELS 6 Xposition Yposition Zposition Zrotation Xrotation Yrotation
                          JOINT RightHandIndex3
                          {
                            OFFSET -0.00274816 -3.40129 -0.000616434
                            CHANNELS 6 Xposition Yposition Zposition Zrotation Xrotation Yrotation
                            End Site
                            {
                              OFFSET -0.00127753 -2.60035 -0.000141707
                            }
                          }
                        }
                      }
                    }
                    JOINT RightHandMiddle
                    {
                      OFFSET 0.248751 -2.20323 0.400575
                      CHANNELS 6 Xposition Yposition Zposition Zrotation Xrotation Yrotation
                      JOINT RightHandMiddle1
                      {
                        OFFSET 0.0010206 -8.30037 0.998465
                        CHANNELS 6 Xposition Yposition Zposition Zrotation Xrotation Yrotation
                        JOINT RightHandMiddle2
                        {
                          OFFSET -0.00419701 -4.65181 0.00105662
                          CHANNELS 6 Xposition Yposition Zposition Zrotation Xrotation Yrotation
                          JOINT RightHandMiddle3
                          {
                            OFFSET -0.000342295 -3.30009 -0.000468366
                            CHANNELS 6 Xposition Yposition Zposition Zrotation Xrotation Yrotation
                            End Site
                            {
                              OFFSET 0.000978142 -2.7002 -0.00121085
                            }
                          }
                        }
                      }
                    }
                    JOINT RightHandRing
                    {
                      OFFSET 0.500208 -2.15002 -0.800275
                      CHANNELS 6 Xposition Yposition Zposition Zrotation Xrotation Yrotation
                      JOINT RightHandRing1
                      {
                        OFFSET -0.00161782 -7.75206 -0.200246
                        CHANNELS 6 Xposition Yposition Zposition Zrotation Xrotation Yrotation
                        JOINT RightHandRing2
                        {
                          OFFSET -7.04136e-05 -3.79979 -0.00022686
                          CHANNELS 6 Xposition Yposition Zposition Zrotation Xrotation Yrotation
                          JOINT RightHandRing3
                          {
                            OFFSET 5.97953e-05 -3.39994 0.00035326
                            CHANNELS 6 Xposition Yposition Zposition Zrotation Xrotation Yrotation
                            End Site
                            {
                              OFFSET -0.000284976 -2.59884 -0.000787839
                            }
                          }
                        }
                      }
                    }
                    JOINT RightHandPinky
                    {
                      OFFSET 0.749038 -1.74694 -1.84822
                      CHANNELS 6 Xposition Yposition Zposition Zrotation Xrotation Yrotation
                      JOINT RightHandPinky1
                      {
                        OFFSET 0.00312667 -7.14305 -1.00214
                        CHANNELS 6 Xposition Yposition Zposition Zrotation Xrotation Yrotation
                        JOINT RightHandPinky2
                        {
                          OFFSET 0.00519756 -3.00078 -0.00108167
                          CHANNELS 6 Xposition Yposition Zposition Zrotation Xrotation Yrotation
                          JOINT RightHandPinky3
                          {
                            OFFSET 0.00164941 -2.34792 -0.00241108
                            CHANNELS 6 Xposition Yposition Zposition Zrotation Xrotation Yrotation
                            End Site
                            {
                              OFFSET -0.000309946 -2.10001 0.000158035
                            }
                          }
                        }
                      }
                    }
                  }
                }
              }
            }
          }
        }
      }
    }
  }
  JOINT LeftUpLeg
  {
    OFFSET 8.00003 0 1.15997e-05
    CHANNELS 6 Xposition Yposition Zposition Zrotation Xrotation Yrotation
    JOINT LeftLeg
    {
      OFFSET -0.000619218 -44.9994 -1.0007
      CHANNELS 6 Xposition Yposition Zposition Zrotation Xrotation Yrotation
      JOINT LeftFoot
      {
        OFFSET -0.000718039 -40.9998 -2.00101
        CHANNELS 6 Xposition Yposition Zposition Zrotation Xrotation Yrotation
        JOINT LeftToeBase
        {
          OFFSET 0.000930911 -7.49995 12.4996
          CHANNELS 6 Xposition Yposition Zposition Zrotation Xrotation Yrotation
          JOINT LeftFootToe
          {
            OFFSET 0 0 4
            CHANNELS 6 Xposition Yposition Zposition Zrotation Xrotation Yrotation
            End Site
            {
              OFFSET 0 0 0
            }
          }
        }
      }
    }
  }
  JOINT RightUpLeg
  {
    OFFSET -8.00003 0 -1.15997e-05
    CHANNELS 6 Xposition Yposition Zposition Zrotation Xrotation Yrotation
    JOINT RightLeg
    {
      OFFSET 0.00111128 -44.9993 -0.999172
      CHANNELS 6 Xposition Yposition Zposition Zrotation Xrotation Yrotation
      JOINT RightFoot
      {
        OFFSET 0.00203852 -41.0065 -1.99925
        CHANNELS 6 Xposition Yposition Zposition Zrotation Xrotation Yrotation
        JOINT RightToeBase
        {
          OFFSET 0.00116018 -7.50005 12.5001
          CHANNELS 6 Xposition Yposition Zposition Zrotation Xrotation Yrotation
          JOINT RightFootToe
          {
            OFFSET 0 0 4
            CHANNELS 6 Xposition Yposition Zposition Zrotation Xrotation Yrotation
            End Site
            {
              OFFSET 0 0 0
            }
          }
        }
      }
    }
  }
}
MOTION
Frames:	3
Frame Time:	0.0111111
-368.292 88.696 1661.41 3.08106 5.26382 -120.362 0 8 1.13687e-13 4.09256 10.6709 14.1712 0 8 -1.13687e-13 0.509512 6.52984 4.74707 0 8 1.13687e-13 0.313646 3.26376 2.37945 2.27374e-13 8 8.52651e-14 0.314132 3.25553 2.37354 2.27374e-13 17 -5.68434e-14 -0.0316952 -1.70624 9.08831 2.27374e-13 10.8 -5.68434e-14 0.330753 -4.01177 21.3303 5 17 5.68434e-14 -0.116484 -2.41501 5.52693 6.45 2.84217e-14 0 -1.47158 -0.0879618 -3.7079 6.45 -5.68434e-14 -5.68434e-14 67.9306 -81.632 56.685 0 -32.4 -2 -14.6588 -5.52447 20.248 -2.27374e-13 -25.65 2 32.9481 20.7175 20.825 -0.5 -1.5 2.65 -32.0761 -17.7276 5.47199 0 -3.8 3.7 7.34541 15.2192 3.82877 2.27374e-13 -3 2.7 0.0288576 23.9243 -0.0276679 4.54747e-13 -1.9 1.6 3.54281e-06 -4.48981e-06 -2.61297e-06 -2.27374e-13 -8.3 1.9 -6.97921 4.51168 0.300835 2.27374e-13 -4.5 0 -17.5434 -0.0153197 0.0118155 -2.27374e-13 -3.4 0 -14.2068 -0.011518 0.00900372 -0.25 -2.2 0.4 3.54281e-06 -4.48981e-06 -2.61297e-06 2.27374e-13 -8.3 1 -24.3762 31.7229 8.86611 0 -4.65 2.27374e-13 -90.0098 0.00231735 -0.015947 0 -3.3 2.27374e-13 -90.0002 1.01236e-06 -6.02428e-05 -0.5 -2.15 -0.8 3.54281e-06 -4.48981e-06 -2.61297e-06 0 -7.75 -0.2 -67.6248 22.5418 20.949 1.13687e-13 -3.8 0 -65.107 -0.00133369 -0.0102058 0 -3.4 -2.27374e-13 -87.7428 -0.0400188 0.0247988 -0.75 -1.75 -1.85 3.54281e-06 -4.48981e-06 -2.61297e-06 -2.27374e-13 -7.15 -1 -89.9202 0.37457 17.2286 -1.13687e-13 -3 0 -61.1984 0.000318744 -0.0212593 1.13687e-13 -2.35 0 -43.0213 0.00829915 0.0018752 -5 17 -5.68434e-14 2.97444 -7.11437 5.63159 -6.45 -5.68434e-14 -1.7053e-13 -1.57709 1.52458 -3.43787 -6.45 -2.84217e-14 -5.68434e-14 -24.3184 -55.3657 18.7987 0 -32.4 -2 -5.42495 -58.9961 5.45631 0 -25.65 2 -48.796 7.03773 60.5069 0.5 -1.5 2.65 87.0632 28.6629 136.017 0 -3.8 3.7 -1.01638 1.70316 -1.10909 -2.27374e-13 -3 2.7 0.0245241 8.51595 -0.0559429 5.68434e-14 -1.9 1.6 -1.66737e-06 8.94252e-06 1.67335e-06 8.52651e-14 -8.3 1.9 3.24964 -6.21907 0.151399 1.42109e-14 -4.5 0 0.0128143 0.0201849 0.040381 4.68958e-13 -3.4 0 -0.0014562 -0.00583045 0.0773746 0.25 -2.2 0.4 -1.66737e-06 8.94252e-06 1.67335e-06 -7.10543e-14 -8.3 1 8.76992 13.9048 -1.31901 -7.10543e-15 -4.65 0 48.0597 35.9193 5.60635 0 -3.3 -1.13687e-13 46.6395 -0.00676359 0.00692121 0.5 -2.15 -0.8 -1.66737e-06 8.94252e-06 1.67335e-06 7.10543e-14 -7.75 -0.2 30.0813 9.46683 -3.52977 2.27374e-13 -3.8 0 17.5761 44.1738 24.8084 5.68434e-14 -3.4 0 57.4431 0.00363902 0.0141651 0.75 -1.75 -1.85 -1.66737e-06 8.94252e-06 1.67335e-06 5.68434e-14 -7.15 -1 45.549 13.6869 -8.52932 5.68434e-14 -3 0 16.9258 10.8559 0.654285 -1.13687e-13 -2.35 2.27374e-13 18.1812 -0.0176967 0.0128954 8 -5.68434e-14 0 41.9919 -28.0241 31.2228 0 -45 -1 -30.2417 25.838 11.6596 -2.27374e-13 -41 -2 10.0673 8.8829 -18.6849 -6.82121e-13 -7.5 12.5 -0.000268783 5.26476e-05 0.0343756 0 -7.10543e-15 4 8.24437 -11.1232 3.28758 -8 -5.68434e-14 0 27.8395 -9.53197 -18.4067 0 -45 -1 -50.9565 14.6999 15.9465 0 -41 -2 29.7219 -13.7881 10.817 0 -7.5 12.5 -0.000344447 0.159543 0.00335568 0 0 4 -12.7571 2.6659 72.3716 
-368.308 88.6963 1661.41 3.08504 5.26096 -120.406 0 8 0 4.11151 10.6977 14.1581 2.27374e-13 8 -1.7053e-13 0.505705 6.5398 4.74665 2.27374e-13 8 1.13687e-13 0.312996 3.26888 2.37877 0 8 1.7053e-13 0.313068 3.26059 2.37295 2.27374e-13 17 -1.13687e-13 -0.0317768 -1.74009 9.09088 2.27374e-13 10.8 5.68434e-14 0.334063 -4.09073 21.3373 5 17 5.68434e-14 -0.142134 -2.41281 5.53402 6.45 0 -5.68434e-14 -1.46476 -0.0875863 -3.70944 6.45 -5.68434e-14 -5.68434e-14 67.5924 -81.3686 56.5231 0 -32.4 -2 -14.8455 -5.88197 20.36 -2.27374e-13 -25.65 2 32.3772 20.7117 21.0585 -0.5 -1.5 2.65 -31.6902 -17.8414 5.38506 0 -3.8 3.7 7.65482 15.8297 3.88488 2.27374e-13 -3 2.7 0.0281144 23.3272 -0.0271133 2.27374e-13 -1.9 1.6 3.54281e-06 -4.48981e-06 -2.61297e-06 2.27374e-13 -8.3 1.9 -7.51309 5.38516 0.392255 4.54747e-13 -4.5 0 -17.7659 -0.0149984 0.0027143 -2.27374e-13 -3.4 0 -14.3595 -0.0114946 0.00788022 -0.25 -2.2 0.4 3.54281e-06 -4.48981e-06 -2.61297e-06 4.54747e-13 -8.3 1 -24.8433 31.905 9.0845 0 -4.65 0 -90.01 0.00164457 -0.0177628 -5.68434e-14 -3.3 2.27374e-13 -90.0002 1.01236e-06 -6.02428e-05 -0.5 -2.15 -0.8 3.54281e-06 -4.48981e-06 -2.61297e-06 -2.27374e-13 -7.75 -0.2 -68.5117 22.1616 21.0674 -1.13687e-13 -3.8 0 -64.5781 -0.0012365 -0.00925672 1.13687e-13 -3.4 -2.27374e-13 -87.5991 -0.0402909 0.0251765 -0.75 -1.75 -1.85 3.54281e-06 -4.48981e-06 -2.61297e-06 -4.54747e-13 -7.15 -1 -89.9669 0.183964 17.2103 -1.13687e-13 -3 0 -61.1329 0.000569524 -0.0213985 0 -2.35 0 -42.9657 0.00886111 0.00297506 -5 17 0 2.99209 -7.11082 5.70247 -6.45 -5.68434e-14 -1.7053e-13 -1.58913 1.53535 -3.46905 -6.45 -2.84217e-14 -2.84217e-14 -24.359 -55.2973 18.7572 0 -32.4 -2 -5.3835 -59.2007 5.41307 0 -25.65 2 -48.6334 7.21936 60.1982 0.5 -1.5 2.65 86.7058 29.1744 135.891 -2.27374e-13 -3.8 3.7 -1.01645 1.70288 -1.10916 -2.27374e-13 -3 2.7 0.0239873 8.18436 -0.0566076 7.10543e-14 -1.9 1.6 -1.66737e-06 8.94252e-06 1.67335e-06 8.52651e-14 -8.3 1.9 3.26578 -6.32784 0.154755 0 -4.5 0 0.0127233 0.0201293 0.0403719 4.54747e-13 -3.4 0 -0.00152367 -0.006323 0.0776455 0.25 -2.2 0.4 -1.66737e-06 8.94252e-06 1.67335e-06 -4.26326e-14 -8.3 1 8.25994 13.84 -1.24141 7.10543e-15 -4.65 2.27374e-13 48.0373 35.8111 5.56348 -5.68434e-14 -3.3 1.13687e-13 46.5483 -0.00722028 0.00539072 0.5 -2.15 -0.8 -1.66737e-06 8.94252e-06 1.67335e-06 5.68434e-14 -7.75 -0.2 29.458 9.46899 -3.43967 1.98952e-13 -3.8 0 17.3451 44.3438 25.1763 1.13687e-13 -3.4 1.13687e-13 57.8484 0.00321727 0.0139196 0.75 -1.75 -1.85 -1.66737e-06 8.94252e-06 1.67335e-06 2.84217e-14 -7.15 -1 44.9765 13.8731 -8.4736 -5.68434e-14 -3 0 16.7432 10.724 0.636809 0 -2.35 0 18.0134 -0.0171825 0.0113961 8 0 0 42.0157 -28.0091 31.2072 -2.27374e-13 -45 -1 -30.2737 25.8575 11.6783 0 -41 -2 10.0661 8.90184 -18.6288 -2.27374e-13 -7.5 12.5 -0.000268782 5.26476e-05 0.0342273 0 0 4 8.25744 -11.1657 3.2905 -8 0 -1.13687e-13 27.8246 -9.52845 -18.4253 0 -45 -1 -50.9564 14.6989 15.9407 0 -41 -2 29.733 -13.785 10.8831 0 -7.5 12.5 -0.000344451 0.15961 0.00335568 0 0 4 -12.7449 2.64871 72.3691 
-368.321 88.6959 1661.41 3.08776 5.25889 -120.436 -2.27374e-13 8 0 4.1273 10.7255 14.149 0 8 -2.27374e-13 0.500069 6.54925 4.74568 0 8 1.7053e-13 0.311799 3.27347 2.37784 2.27374e-13 8 1.42109e-13 0.311879 3.26531 2.37234 -2.27374e-13 17 -5.68434e-14 -0.0299642 -1.77111 9.08729 2.27374e-13 10.8 -5.68434e-14 0.342062 -4.16256 21.3297 5 17 5.68434e-14 -0.166111 -2.41495 5.54269 6.45 2.84217e-14 0 -1.45721 -0.0871549 -3.71093 6.45 -8.52651e-14 0 67.2842 -81.1071 56.4484 0 -32.4 -2 -15.0472 -6.2433 20.4815 -2.27374e-13 -25.65 2 31.756 20.647 21.2697 -0.5 -1.5 2.65 -31.2622 -17.9741 5.30961 -4.54747e-13 -3.8 3.7 7.99964 16.4919 3.93672 1.13687e-13 -3 2.7 0.027414 22.7582 -0.0266431 2.27374e-13 -1.9 1.6 3.54281e-06 -4.48981e-06 -2.61297e-06 0 -8.3 1.9 -8.02612 6.26445 0.488603 0 -4.5 0 -17.9484 -0.0146253 -0.00201479 2.27374e-13 -3.4 0 -14.4835 -0.0114481 0.00717805 -0.25 -2.2 0.4 3.54281e-06 -4.48981e-06 -2.61297e-06 4.54747e-13 -8.3 1 -25.2784 32.0419 9.27864 0 -4.65 0 -90.0101 0.00085269 -0.0194204 5.68434e-14 -3.3 4.54747e-13 -90.0002 1.01236e-06 -6.02428e-05 -0.5 -2.15 -0.8 3.54281e-06 -4.48981e-06 -2.61297e-06 -2.27374e-13 -7.75 -0.2 -69.2655 21.8129 21.1508 1.13687e-13 -3.8 2.27374e-13 -64.064 -0.000979799 -0.00854673 -1.13687e-13 -3.4 0 -87.4548 -0.0405552 0.0255684 -0.75 -1.75 -1.85 3.54281e-06 -4.48981e-06 -2.61297e-06 -2.27374e-13 -7.15 -1 -89.9977 0.0499201 17.1963 -1.13687e-13 -3 2.27374e-13 -61.0354 0.000863508 -0.0215059 -2.27374e-13 -2.35 0 -42.8825 0.00941071 0.00412355 -5 17 0 3.00479 -7.10674 5.77344 -6.45 -8.52651e-14 -1.7053e-13 -1.60397 1.54568 -3.4954 -6.45 0 -2.84217e-14 -24.4097 -55.2265 18.7017 0 -32.4 -2 -5.34593 -59.397 5.31812 -2.27374e-13 -25.65 2 -48.4654 7.37173 59.9463 0.5 -1.5 2.65 86.3446 29.6552 135.765 -2.27374e-13 -3.8 3.7 -1.01651 1.7026 -1.10922 0 -3 2.7 0.0234617 7.87351 -0.0572533 4.26326e-14 -1.9 1.6 -1.66737e-06 8.94252e-06 1.67335e-06 1.13687e-13 -8.3 1.9 3.22531 -6.42325 0.154675 -1.42109e-14 -4.5 0 0.0126324 0.0200114 0.0403603 4.68958e-13 -3.4 0 -0.00159337 -0.00682132 0.0779123 0.25 -2.2 0.4 -1.66737e-06 8.94252e-06 1.67335e-06 -7.10543e-14 -8.3 1 7.76069 13.7667 -1.16657 -1.24345e-14 -4.65 2.27374e-13 48.0105 35.6868 5.51475 0 -3.3 0 46.443 -0.00776115 0.00382122 0.5 -2.15 -0.8 -1.66737e-06 8.94252e-06 1.67335e-06 5.68434e-14 -7.75 -0.2 28.8431 9.48462 -3.3558 2.84217e-13 -3.8 0 17.1345 44.4943 25.5085 1.7053e-13 -3.4 0 58.2118 0.00285523 0.0136276 0.75 -1.75 -1.85 -1.66737e-06 8.94252e-06 1.67335e-06 4.26326e-14 -7.15 -1 44.4113 14.0465 -8.41317 5.68434e-14 -3 0 16.5737 10.6016 0.620163 0 -2.35 2.27374e-13 17.8572 -0.0166411 0.00962168 8 0 1.13687e-13 42.0346 -27.9983 31.197 0 -45 -1 -30.3013 25.8742 11.6939 2.27374e-13 -41 -2 10.0704 8.9249 -18.5864 -2.27374e-13 -7.5 12.5 -0.000268782 5.26476e-05 0.034079 0 -7.10543e-15 4 8.27181 -11.2093 3.29366 -8 0 0 27.8105 -9.52878 -18.446 -2.27374e-13 -45 -1 -50.9575 14.6998 15.9369 2.27374e-13 -41 -2 29.743 -13.784 10.938 0 -7.5 12.5 -0.000344454 0.159675 0.00335568 0 -2.84217e-14 4 -12.7348 2.63288 72.3669 
